<svg width="67" height="93" xmlns="http://www.w3.org/2000/svg"><g fill-rule="nonzero" fill="none"><path d="M67 46.5c0-3.15-2.394-5.751-5.462-6.091V12.222a6.093 6.093 0 0 0 3.661-1.758A6.076 6.076 0 0 0 67 6.13c0-1.638-.64-3.176-1.8-4.333A6.105 6.105 0 0 0 60.854 0H6.235c-1.64 0-3.183.638-4.343 1.797A6.076 6.076 0 0 0 .09 6.13c0 1.639.64 3.177 1.8 4.334a6.09 6.09 0 0 0 3.662 1.758v28.187c-3.068.34-5.462 2.94-5.462 6.091 0 3.15 2.394 5.751 5.462 6.091v28.187a6.09 6.09 0 0 0-3.661 1.758A6.076 6.076 0 0 0 .09 86.87c0 1.638.64 3.176 1.8 4.333A6.107 6.107 0 0 0 6.237 93h54.62a6.105 6.105 0 0 0 4.343-1.797A6.076 6.076 0 0 0 67 86.87c0-1.639-.64-3.177-1.8-4.334a6.095 6.095 0 0 0-3.662-1.758V52.59C64.606 52.251 67 49.65 67 46.5zm-2.731 40.37a3.423 3.423 0 0 1-3.414 3.405H6.235a3.423 3.423 0 0 1-3.413-3.405 3.423 3.423 0 0 1 3.414-3.406h7.282c.752 0 1.366-.61 1.366-1.362 0-.75-.614-1.363-1.366-1.363H8.284V52.63h6.69a1.363 1.363 0 1 0 0-2.724H6.237A3.413 3.413 0 0 1 2.822 46.5a3.413 3.413 0 0 1 3.414-3.406h16.127a1.363 1.363 0 1 0 0-2.724H8.284V12.26h39.827c.754 0 1.365-.612 1.365-1.362 0-.752-.611-1.362-1.365-1.362H6.236A3.423 3.423 0 0 1 2.822 6.13a3.423 3.423 0 0 1 3.414-3.405h54.62a3.423 3.423 0 0 1 3.413 3.405 3.423 3.423 0 0 1-3.414 3.406h-7.28c-.754 0-1.368.61-1.368 1.362 0 .753.614 1.363 1.368 1.363h5.232V40.37h-14.08a1.363 1.363 0 1 0 0 2.724h16.128A3.413 3.413 0 0 1 64.27 46.5a3.413 3.413 0 0 1-3.414 3.406h-8.74c-.753 0-1.365.61-1.365 1.362 0 .753.612 1.362 1.365 1.362h6.692v28.11H18.98c-.754 0-1.365.612-1.365 1.362 0 .752.611 1.362 1.365 1.362h41.875a3.423 3.423 0 0 1 3.414 3.406z" fill="#F0D9E5"/><path d="M12.404 61.9c1.189-.384 1.848-1.68 1.473-2.895-1.462-4.727 1.748-9.545 6.476-9.994.052 5.117 2.918 9.556 7.092 11.777-1.82 2.948-5.349 4.302-8.656 3.235-1.189-.383-2.456.29-2.833 1.506-.375 1.215.285 2.51 1.475 2.894 5.676 1.83 11.761-.813 14.42-6.23 1.126.145 2.153.147 3.297 0 2.645 5.387 8.716 8.068 14.42 6.23 1.19-.384 1.85-1.68 1.474-2.894-.375-1.215-1.643-1.89-2.833-1.506-3.31 1.068-6.837-.288-8.655-3.235 4.173-2.221 7.04-6.66 7.092-11.777 4.72.45 7.94 5.258 6.476 9.994-.375 1.215.285 2.51 1.474 2.894 1.189.383 2.458-.29 2.833-1.505 2.474-8.006-3.407-16.03-11.496-16.03h-.047a13.51 13.51 0 0 0-2.069-3.806c3.552-5.983 1.522-13.959-4.76-17.297a2.235 2.235 0 0 0-3.045.981c-.575 1.13-.144 2.523.961 3.11 3.637 1.933 5.037 6.386 3.376 10.057a12.881 12.881 0 0 0-13.7 0c-1.662-3.675-.258-8.125 3.376-10.057 1.107-.587 1.537-1.98.96-3.11a2.234 2.234 0 0 0-3.044-.981c-6.274 3.333-8.317 11.305-4.76 17.297a13.5 13.5 0 0 0-2.069 3.806c-8.213 0-14 8.079-11.541 16.03.375 1.214 1.644 1.888 2.833 1.505zm12.543-11.828a7.717 7.717 0 0 1 3.635 6.042 8.857 8.857 0 0 1-3.635-6.042zm13.469 6.042a7.717 7.717 0 0 1 3.635-6.042 8.857 8.857 0 0 1-3.635 6.042zM37.194 40.9a7.375 7.375 0 0 1-7.39 0 8.452 8.452 0 0 1 7.39 0zm-10.917 3.145a11.826 11.826 0 0 0 14.444 0c.25.388.47.798.657 1.224-4.585 1.91-7.905 6.718-7.461 12.41-.296.014-.54.014-.835 0 .44-5.66-2.848-10.488-7.462-12.41.188-.426.408-.836.657-1.224z" stroke="#FFF" fill="#9F004E"/></g></svg>