<svg width="86" height="102" xmlns="http://www.w3.org/2000/svg"><g fill="#9F004E" fill-rule="nonzero"><path d="M63.19 37.496a2.037 2.037 0 0 0-2.822-.266 1.975 1.975 0 0 0-.214 2.891c.398.433.945.652 1.494.652.484 0 .97-.17 1.357-.518a1.974 1.974 0 0 0 .185-2.759z" fill-opacity=".226"/><path d="M47.247 76.991c.797.05 1.59.074 2.376.074 9.026 0 17.242-3.24 23.336-9.254 1.603-1.582 3.173-4.726 1.544-10.715-1.12-4.12-3.596-9.004-7.157-14.124a2.035 2.035 0 0 0-2.807-.514 1.976 1.976 0 0 0-.522 2.77c3.306 4.751 5.583 9.212 6.586 12.9.88 3.24.703 5.679-.5 6.866-1.817 1.793-6.341 1.259-12.1-1.43-4.307-2.01-8.979-5.04-13.628-8.81a9.66 9.66 0 0 0 .614-11.494L55.496 32.89a6.592 6.592 0 0 0 2.948.695 6.536 6.536 0 0 0 4.604-1.879 6.373 6.373 0 0 0 0-9.086c-2.538-2.504-6.669-2.504-9.207 0a6.372 6.372 0 0 0-1.2 7.453L42.135 40.441a9.895 9.895 0 0 0-5.406-1.588c-2.297 0-4.474.77-6.23 2.184-3.767-4.544-6.799-9.105-8.816-13.314-2.724-5.684-3.266-10.148-1.45-11.941 2.719-2.683 12.261-.322 24.592 9.337.873.684 2.143.54 2.836-.321a1.975 1.975 0 0 0-.326-2.8c-6.053-4.741-11.963-8.18-17.088-9.944-7.319-2.518-11.036-.896-12.866.909l-.002.001c-6.624 6.538-9.928 15.549-9.302 25.373.62 9.731 5.03 19.106 12.42 26.398a44.655 44.655 0 0 0 4.122 3.596l-.017.045-5.62 17.672h-4.806c-7.8 0-14.147 6.262-14.147 13.96 0 1.1.904 1.992 2.019 1.992h55.277c1.115 0 2.019-.892 2.019-1.992 0-7.698-6.346-13.96-14.147-13.96h-6.619v-10.58a39.718 39.718 0 0 0 8.669 1.523zm9.449-51.553a2.481 2.481 0 0 1 1.748-.713c.634 0 1.267.238 1.749.713a2.42 2.42 0 0 1 0 3.452 2.5 2.5 0 0 1-3.497 0 2.42 2.42 0 0 1 0-3.452zM36.729 42.837c1.557 0 3.022.598 4.123 1.684l.002.002.002.002a5.708 5.708 0 0 1 .452 7.633 102.417 102.417 0 0 1-8.184-8.09 5.838 5.838 0 0 1 3.605-1.231zm-8.648 27.905a42.389 42.389 0 0 0 6.46 3.317v11.989H23.213l4.868-15.306zm17.116 19.29c4.883 0 8.969 3.434 9.906 7.984H4.27c.938-4.55 5.023-7.984 9.906-7.984h31.022zM23.351 61.918c-6.694-6.606-10.687-15.069-11.245-23.83-.37-5.814.809-11.291 3.372-15.994.425 2.203 1.275 4.663 2.555 7.332 3.294 6.873 9.074 14.572 16.275 21.679 7.202 7.106 15.003 12.81 21.968 16.061 2.7 1.26 5.188 2.099 7.417 2.518-12.16 6.424-28.798 3.626-40.342-7.766z"/><path d="M58.475 10.635c-1.115 0-2.019.892-2.019 1.992s.904 1.993 2.019 1.993c6.992 0 12.681 5.613 12.681 12.514 0 1.1.904 1.992 2.019 1.992 1.115 0 2.019-.892 2.019-1.992 0-9.098-7.5-16.499-16.719-16.499z" fill-opacity=".226"/><path d="M58.475 0c-1.115 0-2.019.892-2.019 1.992s.904 1.992 2.019 1.992c12.935 0 23.458 10.385 23.458 23.15 0 1.1.904 1.992 2.02 1.992 1.114 0 2.018-.892 2.018-1.992C85.97 12.172 73.636 0 58.475 0z" fill-opacity=".226"/></g></svg>