<svg width="123" height="97" xmlns="http://www.w3.org/2000/svg"><g fill-rule="nonzero" fill="none"><path d="M29.28 79.272c-1.174 0-2.026 1.104-1.754 2.237.067.277.101.568.101.854-.003 1.994-1.619 3.618-3.604 3.62-1.984-.002-3.598-1.626-3.603-3.62.005-1.992 1.619-3.615 3.603-3.62.995 0 1.802-.81 1.802-1.809 0-.996-.807-1.81-1.802-1.81-3.976 0-7.207 3.231-7.207 7.24 0 4.004 3.229 7.238 7.207 7.238 3.972 0 7.207-3.226 7.207-7.239 0-.574-.067-1.148-.201-1.706a1.797 1.797 0 0 0-1.75-1.385zM83.388 79.322a1.816 1.816 0 0 0-1.33 2.187c.068.277.102.565.102.854-.005 1.994-1.621 3.618-3.603 3.62-1.985-.002-3.601-1.626-3.604-3.62a3.624 3.624 0 0 1 3.604-3.62 1.81 1.81 0 0 0 0-3.62 7.136 7.136 0 0 0-5.096 2.122 7.205 7.205 0 0 0-2.111 5.118c0 3.997 3.22 7.239 7.207 7.239 3.981 0 7.202-3.234 7.207-7.239 0-.574-.068-1.148-.202-1.703a1.798 1.798 0 0 0-2.174-1.338zM108.612 79.322a1.816 1.816 0 0 0-1.329 2.187c.068.277.102.565.102.854-.005 1.994-1.622 3.618-3.604 3.62-1.984-.002-3.6-1.626-3.603-3.62a3.624 3.624 0 0 1 3.603-3.62 1.81 1.81 0 0 0 0-3.62c-3.986.001-7.207 3.244-7.207 7.24 0 3.997 3.22 7.239 7.207 7.239 3.982 0 7.203-3.234 7.207-7.239 0-.574-.067-1.148-.201-1.703a1.798 1.798 0 0 0-2.175-1.338z" fill="#9F004E"/><path d="M117.595 67.885H63.3V15.181a4.206 4.206 0 0 1 3.228-4.108 3.612 3.612 0 0 0 2.779-3.521V3.864a3.63 3.63 0 0 0-1.266-2.757 3.572 3.572 0 0 0-2.893-.821 15.017 15.017 0 0 0-9.016 5.057 15.108 15.108 0 0 0-3.642 9.838h-4.805c-7.338 0-13.413 5.535-14.302 12.668h-1.911c-4.245 0-7.859 2.904-8.79 7.063L19.218 50.39H8.648c-3.642 0-6.606 2.976-6.606 6.635v16.652A3.623 3.623 0 0 0 0 76.934v3.62c0 1.996 1.617 3.619 3.604 3.619h6.122c.89 7.131 6.96 12.668 14.297 12.668 7.338 0 13.409-5.537 14.298-12.668H64.26c.89 7.131 6.96 12.668 14.298 12.668 5.42 0 10.151-3.023 12.612-7.479 2.46 4.455 7.191 7.479 12.612 7.479 7.345 0 13.42-5.55 14.3-12.69 2.753-.25 4.919-2.579 4.919-5.407v-5.43c0-2.993-2.425-5.429-5.405-5.429zM65.705 3.864l-.014 3.689a7.811 7.811 0 0 0-5.993 7.628h-3.603c0-5.581 4.134-10.447 9.61-11.317zM9.723 80.554h-6.12v-3.62h7.06a14.345 14.345 0 0 0-.94 3.62zm14.3 12.667c-5.961 0-10.811-4.87-10.811-10.858 0-6.035 4.918-10.858 10.81-10.858 5.961 0 10.811 4.871 10.811 10.858s-4.85 10.858-10.81 10.858zM38.32 80.553c-.89-7.131-6.96-12.668-14.298-12.668-4.375 0-8.507 2.015-11.238 5.43h-7.14v-16.29a3.012 3.012 0 0 1 3.003-3.016H20.66c.844 0 1.574-.587 1.759-1.413l3.78-16.89a5.382 5.382 0 0 1 5.275-4.238h3.574l.027.002c.998 0 1.802-.822 1.802-1.813 0-5.981 4.844-10.857 10.81-10.857h12.011v9.048H42.281c-.994 0-1.802.813-1.802 1.81 0 .999.808 1.812 1.802 1.812h17.417v38.225c0 1 .806 1.81 1.802 1.81h7.537a14.477 14.477 0 0 0-4.778 9.048H38.32zm40.236 12.668c-5.961 0-10.81-4.87-10.81-10.858 0-5.987 4.848-10.858 10.809-10.858 5.961 0 10.811 4.871 10.811 10.858 0 5.988-4.85 10.858-10.81 10.858zm12.612-17.856a14.574 14.574 0 0 0-3.094-3.86h6.187a14.57 14.57 0 0 0-3.093 3.86zM103.78 93.22c-5.96 0-10.81-4.87-10.81-10.858 0-5.987 4.848-10.858 10.81-10.858 5.961 0 10.81 4.871 10.81 10.858 0 5.988-4.849 10.858-10.81 10.858zm15.615-14.477a1.81 1.81 0 0 1-1.325 1.743 14.487 14.487 0 0 0-4.771-8.982h4.295c.994 0 1.801.811 1.801 1.81v5.429z" fill="#9F004E"/><path d="M56.695 73.315h-6.597l.001-36.418c0-1-.807-1.81-1.802-1.81H31.043c-.843 0-1.573.587-1.758 1.413L25.86 51.803c-.12.536.01 1.098.35 1.527.343.43.86.68 1.408.68h18.878v19.305H43.67c-2.668-5.825-7.75-10.156-13.82-11.868v-2.01c0-.996-.81-1.81-1.803-1.81-.992 0-1.799.811-1.801 1.806v3.435c0 .855.603 1.6 1.436 1.774 5.89 1.222 10.919 5.492 13.122 11.143a1.81 1.81 0 0 0 1.676 1.149h14.215c.995 0 1.802-.81 1.802-1.81 0-.999-.807-1.81-1.802-1.81zm-10.2-22.925H29.87l2.615-11.683h14.012V50.39z" fill="#E9C5D7"/></g></svg>